<svg width="45" height="83" viewBox="0 0 45 83" fill="none" xmlns="http://www.w3.org/2000/svg">
<g clip-path="url(#clip0)">
<path d="M39.0713 41.0658H36.8793L36.2705 38.0536C36.1363 37.391 35.5577 36.9102 34.8948 36.9102H10.1152C9.45195 36.9102 8.87335 37.391 8.73954 38.0536L8.13032 41.0658H5.93839C4.97039 41.0658 4.18298 41.8691 4.18298 42.8567V45.8177C4.18298 46.8053 4.97039 47.609 5.93839 47.609H6.79975L7.28788 51.1083C7.13996 51.1953 7.00512 51.3066 6.89056 51.441C6.59748 51.786 6.46539 52.2429 6.52834 52.6953L9.787 76.0537C9.87678 76.698 10.3512 77.209 10.9504 77.3599L11.4141 80.6856C11.5913 81.9539 12.6714 82.9102 13.927 82.9102H31.083C32.3386 82.9102 33.4187 81.9539 33.5959 80.6856L34.0596 77.3599C34.6588 77.209 35.1332 76.698 35.223 76.0537L38.4817 52.6953C38.5446 52.2429 38.4125 51.786 38.1194 51.441C38.0049 51.3066 37.87 51.1953 37.7218 51.1083L38.2102 47.609H39.0716C40.0396 47.609 40.827 46.8053 40.827 45.8177V42.8567C40.8267 41.8691 40.0393 41.0658 39.0713 41.0658ZM37.1724 52.5051L33.9137 75.8635C33.8983 75.9744 33.804 76.0575 33.6946 76.0575H27.3675C27.0026 76.0575 26.7067 76.3594 26.7067 76.7321C26.7067 77.1048 27.0026 77.4066 27.3675 77.4066H32.7177L32.2867 80.4957C32.2017 81.1032 31.6843 81.5615 31.0827 81.5615H13.927C13.3253 81.5615 12.808 81.1032 12.723 80.4957L12.2923 77.4066H24.2912C24.6565 77.4066 24.9523 77.1048 24.9523 76.7321C24.9523 76.3594 24.6565 76.0575 24.2912 76.0575H11.315C11.2056 76.0575 11.1114 75.9744 11.0959 75.8635L7.83724 52.5051C7.82485 52.4163 7.86441 52.3542 7.88918 52.3251C7.91292 52.2973 7.96452 52.2531 8.04501 52.2489C8.05395 52.2486 8.06255 52.2478 8.07184 52.2471H36.9378C36.9467 52.2478 36.9557 52.2486 36.9646 52.2489C37.0451 52.2531 37.0967 52.2973 37.1205 52.3251C37.1452 52.3542 37.1848 52.4163 37.1724 52.5051ZM8.13548 47.609H36.8745L36.4156 50.8984H8.59437L8.13548 47.609ZM39.5047 45.8177C39.5047 46.0616 39.3103 46.2599 39.0713 46.2599H5.93839C5.69966 46.2599 5.50495 46.0616 5.50495 45.8177V42.8567C5.50495 42.6128 5.69966 42.4145 5.93839 42.4145H11.8541C12.219 42.4145 12.5149 42.1127 12.5149 41.74C12.5149 41.3676 12.219 41.0658 11.8541 41.0658H9.4805L10.0343 38.3263C10.0422 38.2873 10.0763 38.2589 10.1152 38.2589H34.8948C34.9337 38.2589 34.9677 38.2873 34.9757 38.3263L35.5295 41.0658H14.9304C14.5651 41.0658 14.2692 41.3676 14.2692 41.74C14.2692 42.1127 14.5651 42.4145 14.9304 42.4145H39.0713C39.3103 42.4145 39.5047 42.6128 39.5047 42.8567V45.8177Z" fill="white"/>
<path d="M27.4776 58.6005C27.4732 58.5959 27.4683 58.5917 27.4635 58.5871C25.2661 56.3684 21.263 56.8288 18.5265 59.621C17.2187 60.955 16.3848 62.6224 16.1784 64.3161C15.9641 66.0722 16.444 67.6491 17.5293 68.7563C17.5293 68.7567 17.5296 68.7567 17.53 68.757C17.5317 68.7588 17.5334 68.7605 17.5351 68.7619C18.4509 69.693 19.6923 70.1854 21.0907 70.1854C21.349 70.1854 21.6132 70.1682 21.8812 70.1345C23.5413 69.924 25.1756 69.0729 26.4835 67.7389C29.2268 64.9397 29.6744 60.8416 27.4807 58.6036C27.4797 58.6022 27.4787 58.6015 27.4776 58.6005ZM17.4904 64.4824C17.6607 63.0853 18.3607 61.6976 19.4612 60.5746C20.7797 59.2294 22.4305 58.5204 23.9066 58.5204C24.585 58.5204 25.2258 58.671 25.781 58.9777C24.671 59.6505 22.9472 60.974 22.423 62.9354C21.9668 64.6407 19.4921 66.5299 18.134 67.4059C17.5809 66.6306 17.3525 65.6128 17.4904 64.4824ZM25.5485 66.785C24.4477 67.9081 23.0876 68.6219 21.7181 68.7956C20.7508 68.9185 19.8674 68.7567 19.153 68.3383C20.5162 67.4203 23.1275 65.4261 23.6985 63.2902C24.1646 61.5457 26.0071 60.371 26.8485 59.9144C28.157 61.6917 27.63 64.6611 25.5485 66.785Z" fill="white"/>
</g>
<g clip-path="url(#clip1)">
<path d="M23.4821 23.6196L23.0754 23.5081C23.023 23.4906 22.9715 23.4961 22.9213 23.5245C22.871 23.5529 22.8371 23.5956 22.8196 23.6524L20.3737 32.1181C20.3562 32.1749 20.3617 32.2285 20.3901 32.2787C20.4185 32.329 20.4611 32.3629 20.518 32.3804L20.9245 32.4919C20.977 32.5095 21.0284 32.504 21.0787 32.4755C21.129 32.447 21.1629 32.4045 21.1803 32.3477L23.6263 23.8819C23.6437 23.8251 23.6383 23.7715 23.6099 23.7212C23.5814 23.6709 23.5389 23.637 23.4821 23.6196Z" fill="white"/>
<path d="M19.8165 25.2722C19.8165 25.2153 19.7946 25.165 19.7509 25.1213L19.423 24.7934C19.3793 24.7497 19.329 24.7278 19.2722 24.7278C19.2153 24.7278 19.165 24.7497 19.1213 24.7934L16.0656 27.8492C16.0218 27.8929 16 27.9432 16 28C16 28.0568 16.0219 28.1071 16.0656 28.1508L19.1213 31.2065C19.165 31.2503 19.2152 31.2721 19.2721 31.2721C19.3291 31.2721 19.3793 31.2503 19.423 31.2065L19.7509 30.8788C19.7946 30.8352 19.8165 30.7848 19.8165 30.7279C19.8165 30.6712 19.7946 30.6209 19.7509 30.5772L17.1738 28L19.7509 25.423C19.7947 25.3793 19.8165 25.329 19.8165 25.2722Z" fill="white"/>
<path d="M27.9345 27.8491L24.8787 24.7933C24.835 24.7497 24.7847 24.7277 24.7279 24.7277C24.671 24.7277 24.6209 24.7497 24.577 24.7933L24.2493 25.1212C24.2056 25.1649 24.1838 25.2151 24.1838 25.272C24.1838 25.3289 24.2056 25.3792 24.2493 25.4229L26.8264 28L24.2493 30.5772C24.2056 30.6209 24.1838 30.6712 24.1838 30.7279C24.1838 30.7848 24.2056 30.8351 24.2493 30.8788L24.577 31.2065C24.6209 31.2503 24.671 31.2721 24.7279 31.2721C24.7847 31.2721 24.835 31.2502 24.8787 31.2065L27.9345 28.1508C27.9782 28.1071 28 28.0567 28 27.9999C28 27.9431 27.9782 27.8928 27.9345 27.8491Z" fill="white"/>
</g>
<g clip-path="url(#clip2)">
<path d="M35.4821 13.6196L35.0754 13.5081C35.023 13.4906 34.9715 13.4961 34.9213 13.5245C34.871 13.5529 34.8371 13.5956 34.8196 13.6524L32.3737 22.1181C32.3562 22.1749 32.3617 22.2285 32.3901 22.2787C32.4185 22.329 32.4611 22.3629 32.518 22.3804L32.9245 22.4919C32.977 22.5095 33.0284 22.504 33.0787 22.4755C33.129 22.447 33.1629 22.4045 33.1803 22.3477L35.6263 13.8819C35.6437 13.8251 35.6383 13.7715 35.6099 13.7212C35.5814 13.6709 35.5389 13.637 35.4821 13.6196Z" fill="white"/>
<path d="M31.8165 15.2722C31.8165 15.2153 31.7946 15.165 31.7509 15.1213L31.423 14.7934C31.3793 14.7497 31.329 14.7278 31.2722 14.7278C31.2153 14.7278 31.165 14.7497 31.1213 14.7934L28.0656 17.8492C28.0218 17.8929 28 17.9432 28 18C28 18.0568 28.0219 18.1071 28.0656 18.1508L31.1213 21.2065C31.165 21.2503 31.2152 21.2721 31.2721 21.2721C31.3291 21.2721 31.3793 21.2503 31.423 21.2065L31.7509 20.8788C31.7946 20.8352 31.8165 20.7848 31.8165 20.7279C31.8165 20.6712 31.7946 20.6209 31.7509 20.5772L29.1738 18L31.7509 15.423C31.7947 15.3793 31.8165 15.329 31.8165 15.2722Z" fill="white"/>
<path d="M39.9345 17.8491L36.8787 14.7933C36.835 14.7497 36.7847 14.7277 36.7279 14.7277C36.671 14.7277 36.6209 14.7497 36.577 14.7933L36.2493 15.1212C36.2056 15.1649 36.1838 15.2151 36.1838 15.272C36.1838 15.3289 36.2056 15.3792 36.2493 15.4229L38.8264 18L36.2493 20.5772C36.2056 20.6209 36.1838 20.6712 36.1838 20.7279C36.1838 20.7848 36.2056 20.8351 36.2493 20.8788L36.577 21.2065C36.6209 21.2503 36.671 21.2721 36.7279 21.2721C36.7847 21.2721 36.835 21.2502 36.8787 21.2065L39.9345 18.1508C39.9782 18.1071 40 18.0567 40 17.9999C40 17.9431 39.9782 17.8928 39.9345 17.8491Z" fill="white"/>
</g>
<g clip-path="url(#clip3)">
<path d="M27.4821 1.61956L27.0754 1.50807C27.023 1.49061 26.9715 1.4961 26.9213 1.52449C26.871 1.5529 26.8371 1.59555 26.8196 1.65238L24.3737 10.1181C24.3562 10.1749 24.3617 10.2285 24.3901 10.2787C24.4185 10.329 24.4611 10.3629 24.518 10.3804L24.9245 10.4919C24.977 10.5095 25.0284 10.504 25.0787 10.4755C25.129 10.447 25.1629 10.4045 25.1803 10.3477L27.6263 1.88192C27.6437 1.8251 27.6383 1.77149 27.6099 1.72117C27.5814 1.67087 27.5389 1.63699 27.4821 1.61956Z" fill="white"/>
<path d="M23.8165 3.27215C23.8165 3.21533 23.7946 3.16501 23.7509 3.12132L23.423 2.79343C23.3793 2.74973 23.329 2.72781 23.2722 2.72781C23.2153 2.72781 23.165 2.74975 23.1213 2.79343L20.0656 5.84917C20.0218 5.89288 20 5.94318 20 6C20 6.05682 20.0219 6.10712 20.0656 6.15081L23.1213 9.20654C23.165 9.25032 23.2152 9.27209 23.2721 9.27209C23.3291 9.27209 23.3793 9.25025 23.423 9.20654L23.7509 8.87884C23.7946 8.83515 23.8165 8.78483 23.8165 8.72794C23.8165 8.67119 23.7946 8.62089 23.7509 8.5772L21.1738 6L23.7509 3.42298C23.7947 3.3793 23.8165 3.32897 23.8165 3.27215Z" fill="white"/>
<path d="M31.9345 5.84908L28.8787 2.79334C28.835 2.74966 28.7847 2.72772 28.7279 2.72772C28.671 2.72772 28.6209 2.74966 28.577 2.79334L28.2493 3.12121C28.2056 3.16492 28.1838 3.21515 28.1838 3.27204C28.1838 3.32893 28.2056 3.37918 28.2493 3.42287L30.8264 5.99995L28.2493 8.57718C28.2056 8.62086 28.1838 8.67119 28.1838 8.72792C28.1838 8.78483 28.2056 8.83513 28.2493 8.87882L28.577 9.20652C28.6209 9.2503 28.671 9.27207 28.7279 9.27207C28.7847 9.27207 28.835 9.25023 28.8787 9.20652L31.9345 6.15081C31.9782 6.10712 32 6.05673 32 5.99991C32 5.94306 31.9782 5.89276 31.9345 5.84908Z" fill="white"/>
</g>
<defs>
<clipPath id="clip0">
<rect width="45" height="46" fill="white" transform="translate(0 37)"/>
</clipPath>
<clipPath id="clip1">
<rect width="12" height="12" fill="white" transform="translate(16 22)"/>
</clipPath>
<clipPath id="clip2">
<rect width="12" height="12" fill="white" transform="translate(28 12)"/>
</clipPath>
<clipPath id="clip3">
<rect width="12" height="12" fill="white" transform="translate(20)"/>
</clipPath>
</defs>
</svg>
